<svg width="60" height="50" viewBox="0 0 256 211" fill="none" xmlns="http://www.w3.org/2000/svg">
<g clip-path="url(#clip0_62_697)">
<path d="M144.822 105.322L169.779 133.849L203.341 155.294L209.179 105.502L203.341 56.833L169.136 75.672L144.822 105.322Z" fill="#00832D"/>
<path d="M0 150.66V193.09C0 202.778 7.864 210.644 17.554 210.644H59.984L68.77 178.585L59.984 150.66L30.874 141.874L0.001 150.66H0Z" fill="#0066DA"/>
<path d="M59.984 0L0 59.984L30.876 68.749L59.984 59.984L68.61 32.439L59.984 0Z" fill="#E94235"/>
<path d="M0 150.68H59.984V59.982H0.001L0 150.68Z" fill="#2684FC"/>
<path d="M241.659 25.398L203.34 56.834V155.294L241.817 186.852C247.577 191.364 256.003 187.252 256.003 179.93V32.18C256.003 24.777 247.376 20.685 241.658 25.399" fill="#00AC47"/>
<path d="M144.822 105.322V150.66H59.984V210.644H185.788C195.478 210.644 203.341 202.778 203.341 193.09V155.294L144.822 105.322Z" fill="#00AC47"/>
<path d="M185.788 0H59.984V59.984H144.822V105.322L203.342 56.832V17.555C203.342 7.865 195.478 0.001 185.788 0.001" fill="#FFBA00"/>
</g>
<defs>
<clipPath id="clip0_62_697">
<rect width="256" height="211" fill="white"/>
</clipPath>
</defs>
</svg>
